<?xml version="1.0" encoding="utf-8"?>
<!-- Generator: Adobe Illustrator 23.0.3, SVG Export Plug-In . SVG Version: 6.00 Build 0)  -->
<svg version="1.1" id="Calque_1" xmlns:serif="http://www.serif.com/"
	 xmlns="http://www.w3.org/2000/svg" xmlns:xlink="http://www.w3.org/1999/xlink" x="0px" y="0px" viewBox="0 0 249.6 163.2"
	 style="enable-background:new 0 0 249.6 163.2;" xml:space="preserve">
<style type="text/css">
	.st0{fill:url(#SVGID_1_);}
	.st1{fill:url(#SVGID_2_);}
	.st2{fill:url(#SVGID_3_);}
	.st3{fill:url(#SVGID_4_);}
	.st4{fill:url(#SVGID_5_);}
	.st5{fill:url(#SVGID_6_);}
	.st6{fill:url(#SVGID_7_);}
	.st7{fill:url(#SVGID_8_);}
	.st8{fill:url(#SVGID_9_);}
</style>
<g transform="matrix(1.15343,0,0,1.0318,1225.01,590.479)">
	
		<linearGradient id="SVGID_1_" gradientUnits="userSpaceOnUse" x1="-2026.6112" y1="-28.4799" x2="-2023.2332" y2="-28.4799" gradientTransform="matrix(-64.5096 0 0 -53.2414 -131607.625 -2037.3416)">
		<stop  offset="0" style="stop-color:#0594A6"/>
		<stop  offset="1" style="stop-color:#03383F"/>
	</linearGradient>
	<path class="st0" d="M-986.5-546.9c0,0.4-0.6,0.6-1.9,0.6h-1.7h-1.3c-0.8,0-1.3,0.2-1.5,0.4c-0.2,0.2-0.2,1.1-0.2,2.5v43.3
		c0,2.7,0,4.2,0,4.6c0,0.4-0.2,0.6-0.4,0.6s-0.6-0.2-1.1-0.8l-9.7-14.1c-5.5-8.2-12.4-18.3-20.4-30.7v42.1c0,0.6,0.4,1.1,1.1,1.3
		c0.6,0.2,2.3,0.2,5,0.4c0.6,0,1.1,0.2,1.1,0.6c0,0.4-0.6,0.8-1.9,0.8c-0.4,0-1.9,0-4.2-0.2c-0.8,0-1.7,0-2.3,0c0,0-0.4,0-1.3,0.2
		c-0.8,0-2.3,0.2-4.2,0.2h-0.8c-1.1,0-1.7-0.2-1.7-0.6c0-0.4,0.4-0.6,1.5-0.6c2.9,0,4.6-0.2,5.3-0.6c0.6-0.4,0.6-1.5,0.6-3.2v-37
		c0-4.2-0.8-6.7-2.5-7.8c-0.8-0.4-2.3-0.8-4.2-0.8c-1.3,0-1.9-0.2-1.9-0.8c0-0.4,0.4-0.6,1.1-0.6c1.1,0,2.3,0,3.8,0
		c1.5,0,2.3,0,2.5,0c0.2,0,0.8,0,2.1,0c1.7,0,3.4,0,4.8,0l25.9,38.7v-33.5c0-1.5,0-2.5,0-2.7c0-0.4-0.2-0.6-0.6-0.8
		c-0.4-0.2-1.5-0.2-3.6-0.2c-1.9,0-2.7-0.2-2.7-0.6c0-0.4,0.6-0.8,1.9-0.8h4.8c0.8,0,1.3,0,1.5,0c0,0,0.4,0,1.3,0h4.6
		C-987.2-547.5-986.5-547.3-986.5-546.9z"/>
	
		<linearGradient id="SVGID_2_" gradientUnits="userSpaceOnUse" x1="-2026.6112" y1="-28.6402" x2="-2023.2332" y2="-28.6402" gradientTransform="matrix(-64.5096 0 0 -53.2414 -131607.625 -2037.3416)">
		<stop  offset="0" style="stop-color:#0594A6"/>
		<stop  offset="1" style="stop-color:#03383F"/>
	</linearGradient>
	<path class="st1" d="M-969.3-495.8c0,0.2-0.2,0.4-0.6,0.4h-0.8h-1.7h-1.9c-0.4,0-0.8,0-1.3,0h-0.8c-0.4,0-1.5,0-2.7,0
		c-1.5,0-2.5,0-3.2,0h-0.2c-0.8,0-1.3-0.2-1.3-0.4c0-0.4,0.6-0.6,1.7-0.6c1.5,0,2.3-0.2,2.3-0.6c0-0.2,0.2-1.3,0.2-3.2v-24.2
		c0-1.9,0-3.2-0.2-3.4c0-0.4-0.4-0.4-1.1-0.6h-1.5h-0.8c-0.4,0-0.6-0.2-0.6-0.6s0.4-0.6,1.1-0.6c0,0,0,0,0.4,0c0.4,0,0.8,0,1.7,0
		h5.5c0.2,0,0.8,0,1.3,0h3.6c0.8,0,1.3,0.2,1.3,0.6c0,0.2-0.8,0.4-2.5,0.6c-0.6,0-1.1,0.2-1.3,0.4c-0.2,0.2-0.2,0.8-0.2,2.1v28.4
		c0,0.4,0.2,0.8,0.6,1.1c0.4,0.2,1.3,0.2,2.7,0.4C-969.5-496.2-969.3-496-969.3-495.8z"/>
	
		<linearGradient id="SVGID_3_" gradientUnits="userSpaceOnUse" x1="-2026.6112" y1="-28.6461" x2="-2023.2332" y2="-28.6461" gradientTransform="matrix(-64.5096 0 0 -53.2414 -131607.625 -2037.3416)">
		<stop  offset="0" style="stop-color:#0594A6"/>
		<stop  offset="1" style="stop-color:#03383F"/>
	</linearGradient>
	<path class="st2" d="M-935.4-506.5c0,0.2,0,0.6,0,1.3c-0.2,2.7-0.2,4.6-0.2,5.7c0,0.8,0,1.9,0.2,3.4v0.6c0,0.4-0.2,0.8-0.6,0.8
		c-0.4,0-0.8-0.4-1.3-1.3l-0.6-1.5c0,0-0.2-0.2-0.2-0.4c-2.3,2.3-5.5,3.4-9.3,3.4c-5,0-9.3-1.7-12.6-5c-3.4-3.4-5-7.6-5-12.8
		c0-5,1.5-9.3,4.6-12.6s7.2-4.8,12-4.8c3.8,0,6.9,1.1,9.5,2.9c0.2,0.2,0.4,0.2,0.6,0.2c0.2,0,0.4-0.4,0.6-1.1
		c0.4-1.1,0.8-1.7,1.3-1.7c0.4,0,0.6,0.2,0.6,0.6c0,0,0,0.2-0.2,0.6c-0.2,1.7-0.4,4.2-0.6,7.6c0,2.1-0.4,3.2-0.8,3.2
		c-0.4,0-0.6-0.4-0.8-1.1c-0.4-2.7-1.1-4.6-1.9-6.1c-1.7-2.9-4.2-4.2-8-4.2c-3.2,0-5.5,1.5-7.4,4.4c-1.9,2.9-2.7,6.9-2.7,12
		c0,5,1.1,9,2.9,12c2.1,2.9,4.6,4.4,8.2,4.4c2.5,0,4.8-0.8,6.5-2.7c1.7-1.7,2.9-4.2,3.4-7.4c0.2-1.3,0.6-1.9,1.1-1.9
		C-935.6-508-935.4-507.6-935.4-506.5z"/>
	
		<linearGradient id="SVGID_4_" gradientUnits="userSpaceOnUse" x1="-2026.6112" y1="-28.8931" x2="-2023.2332" y2="-28.8931" gradientTransform="matrix(-64.5096 0 0 -53.2414 -131607.625 -2037.3416)">
		<stop  offset="0" style="stop-color:#0594A6"/>
		<stop  offset="1" style="stop-color:#03383F"/>
	</linearGradient>
	<path class="st3" d="M-919.4-498.9c0,1.1-0.4,2.1-1.3,2.7c-0.8,0.8-1.7,1.3-2.7,1.3s-2.1-0.4-2.9-1.3c-0.8-0.8-1.3-1.7-1.3-2.9
		c0-1.1,0.4-2.1,1.3-2.7c0.8-0.8,1.7-1.3,2.9-1.3c1.1,0,2.1,0.4,2.7,1.3C-919.6-501-919.4-500-919.4-498.9z"/>
	
		<linearGradient id="SVGID_5_" gradientUnits="userSpaceOnUse" x1="-2026.6112" y1="-28.4782" x2="-2023.2332" y2="-28.4782" gradientTransform="matrix(-64.5096 0 0 -53.2414 -131607.625 -2037.3416)">
		<stop  offset="0" style="stop-color:#0594A6"/>
		<stop  offset="1" style="stop-color:#03383F"/>
	</linearGradient>
	<path class="st4" d="M-871.7-501.2c0,1.3,0,3.4-0.2,6.5h-0.8c-0.2,0-1.1,0-2.1-0.2c-1.1,0-2.5-0.2-4-0.2l-31.3-0.2
		c-0.8,0-1.3-0.2-1.3-0.6s0.6-0.6,2.1-0.6c1.9,0,2.9-0.2,3.4-0.6c0.4-0.4,0.6-1.3,0.6-2.7v-42.3c0-1.9-0.2-2.9-0.6-3.2
		c-0.4-0.2-1.7-0.4-4-0.4c-1.1,0-1.5-0.2-1.5-0.8c0-0.4,0.2-0.6,0.8-0.6h0.6c1.7,0.2,4.8,0.2,9.9,0.2c0.4,0,1.3,0,2.7-0.2
		c1.3,0,2.3-0.2,3.2-0.2h0.8c0.8,0,1.3,0.2,1.3,0.8c0,0.2-0.2,0.4-0.4,0.6c-0.2,0-1.1,0.2-2.5,0.2c-1.5,0-2.3,0.2-2.5,0.6
		c-0.2,0.4-0.4,1.7-0.4,4v44.4c1.3,0,3.2,0,5.7,0c5.9,0,10.1-0.2,12.4-0.8c2.3-0.6,4-1.7,4.8-3.4s1.3-3.8,1.5-6.7
		c0-0.6,0.4-1.1,0.8-1.1c0.6,0,1.1,0.4,0.8,1.1v1.9v0.6c0,0.4,0,0.6,0,1.1v2.9H-871.7z"/>
</g>
<g transform="matrix(1.08523,0,0,1.03151,1205.54,465.653)">
	
		<linearGradient id="SVGID_6_" gradientUnits="userSpaceOnUse" x1="-2180.9988" y1="-25.8361" x2="-2177.6204" y2="-25.8361" gradientTransform="matrix(-60.6951 0 0 -53.2268 -133290.0313 -1715.8002)">
		<stop  offset="0" style="stop-color:#0594A6"/>
		<stop  offset="1" style="stop-color:#03383F"/>
	</linearGradient>
	<path class="st5" d="M-1044.8-329.2c0,0,0,0.4,0,1.3c0,0.6,0,1.5,0,1.9v5.5c0,0.6,0,1.3,0,2.1l-16-0.2h-18.3
		c-1.3,0-2.1-0.2-2.1-0.6c0-0.4,0.4-0.8,1.1-0.8c2.1,0,3.2-0.2,3.6-0.4c0.4-0.2,0.6-1.3,0.6-3.2v-33c0-2.5-0.2-4-0.6-4.2
		c-0.4-0.2-1.5-0.2-3.4-0.2c-0.8,0-1.1-0.2-1.1-0.6c0-0.4,0.4-0.8,1.3-0.8h4.2c0.6,0,1.1,0,1.1,0h2.3c0.4,0,1.9,0,4.8,0h16.2
		c1.7,0,2.9,0,4.2-0.2v0.6v1.5c0.2,1.1,0.4,3.8,0.8,8.6c0,0.4,0,0.6,0,1.1c0,0.8-0.2,1.3-0.6,1.3c-0.6,0-1.1-0.6-1.3-1.9
		c-0.8-4.8-2.5-7.8-5-8.6c-1.5-0.4-4.6-0.6-9.9-0.6h-4.8v17.9h2.3c4,0,6.5-0.4,7.6-1.1c1.1-0.6,1.7-2.5,1.9-5.5
		c0.2-1.9,0.6-2.7,1.1-2.7c0.6,0,1.1,0.6,1.1,1.9c0,0.8,0,1.9-0.2,3.6c0,1.7-0.2,2.7-0.2,3.6c0,4.2,0,6.9,0.2,8.6c0,0.4,0,0.8,0,1.3
		c0,1.1-0.4,1.5-1.1,1.5c-0.6,0-1.1-0.8-1.1-2.3c-0.4-3.4-1.1-5.5-1.9-6.1c-0.8-0.6-3.4-1.1-7.6-1.1h-2.3v20.6
		c9.5,0,14.9-0.4,16.6-0.8c2.5-0.6,4-3.8,4.4-9.3c0-1.1,0.4-1.5,1.1-1.5C-1045.2-332.3-1044.8-331.1-1044.8-329.2z"/>
	
		<linearGradient id="SVGID_7_" gradientUnits="userSpaceOnUse" x1="-2180.9988" y1="-25.838" x2="-2177.6204" y2="-25.838" gradientTransform="matrix(-60.6951 0 0 -53.2268 -133290.0313 -1715.8002)">
		<stop  offset="0" style="stop-color:#0594A6"/>
		<stop  offset="1" style="stop-color:#03383F"/>
	</linearGradient>
	<path class="st6" d="M-1004.4-327.5c0,3.6,0,6.5-0.2,9c-0.4,0-0.8,0-1.5,0c0,0-0.6,0-1.5-0.2c-0.8,0-2.1-0.2-3.6-0.2h-4.4
		l-16.4-0.2h-7.8c-0.8,0-1.3-0.2-1.3-0.6c0-0.4,1.3-0.6,3.8-0.8c0.6,0,1.1-0.2,1.3-0.4c0.2-0.2,0.2-1.1,0.2-2.1v-32.2
		c0-3.6-0.2-5.5-0.8-5.7c-0.2-0.2-0.8-0.2-1.7-0.2s-1.5,0-1.7,0c-0.6,0-1.1-0.2-1.1-0.8c0-0.4,0.4-0.6,1.3-0.6h13.3
		c0.6,0,1.5,0,2.1,0c1.3,0,1.9,0.2,1.9,0.8c0,0.4-1.1,0.6-3.2,0.6c-1.1,0-1.7,0.2-1.9,0.6c-0.2,0.4-0.2,1.7-0.2,4.2v35.6
		c2.5,0,4.4,0,5.5,0c6.9,0,11.2-0.6,12.8-2.1c1.5-1.1,2.3-3.4,2.7-6.9c0.2-1.5,0.4-2.3,1.1-2.3
		C-1004.8-331.7-1004.4-330.4-1004.4-327.5z"/>
	
		<linearGradient id="SVGID_8_" gradientUnits="userSpaceOnUse" x1="-2180.9988" y1="-25.8361" x2="-2177.6204" y2="-25.8361" gradientTransform="matrix(-60.6951 0 0 -53.2268 -133290.0313 -1715.8002)">
		<stop  offset="0" style="stop-color:#0594A6"/>
		<stop  offset="1" style="stop-color:#03383F"/>
	</linearGradient>
	<path class="st7" d="M-965.1-329.2c0,0,0,0.4,0,1.3c0,0.6,0,1.5,0,1.9v5.5c0,0.6,0,1.3,0,2.1l-16-0.2h-18.3c-1.3,0-2.1-0.2-2.1-0.6
		c0-0.4,0.4-0.8,1.1-0.8c2.1,0,3.2-0.2,3.6-0.4c0.4-0.2,0.6-1.3,0.6-3.2v-33c0-2.5-0.2-4-0.6-4.2c-0.4-0.2-1.5-0.2-3.4-0.2
		c-0.8,0-1.1-0.2-1.1-0.6c0-0.4,0.4-0.8,1.3-0.8h4.2c0.6,0,1.1,0,1.1,0h2.3c0.4,0,1.9,0,4.8,0h16.2c1.7,0,2.9,0,4.2-0.2v0.6v1.5
		c0.2,1.1,0.4,3.8,0.8,8.6c0,0.4,0,0.6,0,1.1c0,0.8-0.2,1.3-0.6,1.3c-0.6,0-1.1-0.6-1.3-1.9c-0.8-4.8-2.5-7.8-5-8.6
		c-1.5-0.4-4.6-0.6-9.9-0.6h-4.8v17.9h2.3c4,0,6.5-0.4,7.6-1.1c1.1-0.6,1.7-2.5,1.9-5.5c0.2-1.9,0.6-2.7,1.1-2.7
		c0.6,0,1.1,0.6,1.1,1.9c0,0.8,0,1.9-0.2,3.6c0,1.7-0.2,2.7-0.2,3.6c0,4.2,0,6.9,0.2,8.6c0,0.4,0,0.8,0,1.3c0,1.1-0.4,1.5-1.1,1.5
		s-1.1-0.8-1.1-2.3c-0.4-3.4-1.1-5.5-1.9-6.1c-0.8-0.6-3.4-1.1-7.6-1.1h-2.3v20.6c9.5,0,14.9-0.4,16.6-0.8c2.5-0.6,4-3.8,4.4-9.3
		c0-1.1,0.4-1.5,1.1-1.5C-965.5-331.9-965.1-331.1-965.1-329.2z"/>
	
		<linearGradient id="SVGID_9_" gradientUnits="userSpaceOnUse" x1="-2180.9988" y1="-25.8341" x2="-2177.6204" y2="-25.8341" gradientTransform="matrix(-60.6951 0 0 -53.2268 -133290.0313 -1715.8002)">
		<stop  offset="0" style="stop-color:#0594A6"/>
		<stop  offset="1" style="stop-color:#03383F"/>
	</linearGradient>
	<path class="st8" d="M-922.8-333.2c0,0.2,0,0.6,0,1.7c-0.2,3.4-0.4,5.9-0.4,7.4c0,1.1,0,2.3,0.2,4.2v0.6c0,0.6-0.2,1.1-0.8,1.1
		c-0.4,0-1.1-0.6-1.5-1.7l-0.8-1.9c0-0.2-0.2-0.4-0.2-0.6c-2.9,2.9-6.7,4.2-11.8,4.2c-6.5,0-11.8-2.1-16.2-6.5s-6.5-9.7-6.5-16.2
		s1.9-11.8,5.9-16c4-4.2,9-6.3,15.1-6.3c4.8,0,8.8,1.3,12,3.8c0.2,0.2,0.4,0.4,0.8,0.4c0.4,0,0.6-0.4,0.8-1.3
		c0.4-1.5,1.1-2.1,1.7-2.1c0.4,0,0.6,0.2,0.6,0.8c0,0,0,0.4-0.2,0.8c-0.4,2.1-0.6,5.5-0.6,9.7c0,2.7-0.4,4-1.1,4
		c-0.4,0-0.8-0.4-1.1-1.5c-0.6-3.4-1.5-6.1-2.3-7.6c-2.1-3.6-5.5-5.5-10.1-5.5c-4,0-6.9,1.9-9.3,5.7c-2.3,3.8-3.4,8.8-3.4,15.4
		c0,6.5,1.3,11.6,3.8,15.4c2.5,3.8,6.1,5.7,10.3,5.7c3.4,0,6.1-1.1,8.2-3.4s3.6-5.5,4.4-9.5c0.4-1.7,0.6-2.5,1.3-2.5
		C-923.2-335.1-922.8-334.4-922.8-333.2z"/>
</g>
</svg>
